# xmcd CD database file
#
# Track frame offsets:
#	182
#	28485
#	88317
#	120000
#	151655
#	181050
#	200080
#
# Disc length: 3092 seconds
#
# Revision: 1
# Processed by: cddbd v1.5PL3 Copyright (c) Steve Scherf et al.
# Submitted via: CDex 1.51
#
DISCID=520c1207
DTITLE=Denis Colin Trio - Fluide
DYEAR=1997
DGENRE=Jazz
TTITLE0=Attachee detachee
TTITLE1=Fly
TTITLE2=Entre chien et loup
TTITLE3=Travelling
TTITLE4=Bagnolet
TTITLE5=Veillees
TTITLE6=Chemins
EXTD=YEAR: 1997
EXTT0=
EXTT1=
EXTT2=
EXTT3=
EXTT4=
EXTT5=
EXTT6=
PLAYORDER=
